<mxfile host="app.diagrams.net" modified="2020-11-12T22:22:23.323Z" agent="5.0 (Windows NT 10.0; Win64; x64) AppleWebKit/537.36 (KHTML, like Gecko) Chrome/86.0.4240.193 Safari/537.36" etag="ciNKaYdMwHQC9VxliUKl" version="13.9.7" type="github">
  <diagram id="C5RBs43oDa-KdzZeNtuy" name="Page-1">
    <mxGraphModel dx="868" dy="627" grid="1" gridSize="10" guides="1" tooltips="1" connect="1" arrows="1" fold="1" page="1" pageScale="1" pageWidth="827" pageHeight="1169" math="0" shadow="0">
      <root>
        <mxCell id="WIyWlLk6GJQsqaUBKTNV-0" />
        <mxCell id="WIyWlLk6GJQsqaUBKTNV-1" parent="WIyWlLk6GJQsqaUBKTNV-0" />
        <mxCell id="2elMFGvCMZI_2MKVowEU-22" style="edgeStyle=orthogonalEdgeStyle;rounded=0;orthogonalLoop=1;jettySize=auto;html=1;exitX=0.5;exitY=1;exitDx=0;exitDy=0;entryX=0.5;entryY=0;entryDx=0;entryDy=0;" edge="1" parent="WIyWlLk6GJQsqaUBKTNV-1" source="2elMFGvCMZI_2MKVowEU-3" target="2elMFGvCMZI_2MKVowEU-8">
          <mxGeometry relative="1" as="geometry" />
        </mxCell>
        <mxCell id="2elMFGvCMZI_2MKVowEU-3" value="Preprocessing" style="rounded=1;whiteSpace=wrap;html=1;absoluteArcSize=1;arcSize=14;strokeWidth=2;" vertex="1" parent="WIyWlLk6GJQsqaUBKTNV-1">
          <mxGeometry x="55" y="150" width="100" height="40" as="geometry" />
        </mxCell>
        <mxCell id="2elMFGvCMZI_2MKVowEU-4" value="Selesai" style="strokeWidth=2;html=1;shape=mxgraph.flowchart.start_1;whiteSpace=wrap;" vertex="1" parent="WIyWlLk6GJQsqaUBKTNV-1">
          <mxGeometry x="55" y="600" width="100" height="40" as="geometry" />
        </mxCell>
        <mxCell id="2elMFGvCMZI_2MKVowEU-20" style="edgeStyle=orthogonalEdgeStyle;rounded=0;orthogonalLoop=1;jettySize=auto;html=1;exitX=0.5;exitY=1;exitDx=0;exitDy=0;exitPerimeter=0;entryX=0.5;entryY=0;entryDx=0;entryDy=0;" edge="1" parent="WIyWlLk6GJQsqaUBKTNV-1" source="2elMFGvCMZI_2MKVowEU-5" target="2elMFGvCMZI_2MKVowEU-6">
          <mxGeometry relative="1" as="geometry" />
        </mxCell>
        <mxCell id="2elMFGvCMZI_2MKVowEU-5" value="Mulai" style="strokeWidth=2;html=1;shape=mxgraph.flowchart.start_1;whiteSpace=wrap;" vertex="1" parent="WIyWlLk6GJQsqaUBKTNV-1">
          <mxGeometry x="55" y="30" width="100" height="40" as="geometry" />
        </mxCell>
        <mxCell id="2elMFGvCMZI_2MKVowEU-21" style="edgeStyle=orthogonalEdgeStyle;rounded=0;orthogonalLoop=1;jettySize=auto;html=1;exitX=0.5;exitY=1;exitDx=0;exitDy=0;entryX=0.5;entryY=0;entryDx=0;entryDy=0;" edge="1" parent="WIyWlLk6GJQsqaUBKTNV-1" source="2elMFGvCMZI_2MKVowEU-6" target="2elMFGvCMZI_2MKVowEU-3">
          <mxGeometry relative="1" as="geometry" />
        </mxCell>
        <mxCell id="2elMFGvCMZI_2MKVowEU-6" value="Masukkan&lt;br&gt;Data" style="shape=parallelogram;html=1;strokeWidth=2;perimeter=parallelogramPerimeter;whiteSpace=wrap;rounded=1;arcSize=12;size=0.23;" vertex="1" parent="WIyWlLk6GJQsqaUBKTNV-1">
          <mxGeometry x="50" y="90" width="110" height="40" as="geometry" />
        </mxCell>
        <mxCell id="2elMFGvCMZI_2MKVowEU-23" style="edgeStyle=orthogonalEdgeStyle;rounded=0;orthogonalLoop=1;jettySize=auto;html=1;exitX=0.5;exitY=1;exitDx=0;exitDy=0;entryX=0.5;entryY=0;entryDx=0;entryDy=0;" edge="1" parent="WIyWlLk6GJQsqaUBKTNV-1" source="2elMFGvCMZI_2MKVowEU-8" target="2elMFGvCMZI_2MKVowEU-11">
          <mxGeometry relative="1" as="geometry" />
        </mxCell>
        <mxCell id="2elMFGvCMZI_2MKVowEU-8" value="Segmentasi Warna (HSV)" style="rounded=1;whiteSpace=wrap;html=1;absoluteArcSize=1;arcSize=14;strokeWidth=2;" vertex="1" parent="WIyWlLk6GJQsqaUBKTNV-1">
          <mxGeometry x="55" y="210" width="100" height="40" as="geometry" />
        </mxCell>
        <mxCell id="2elMFGvCMZI_2MKVowEU-24" style="edgeStyle=orthogonalEdgeStyle;rounded=0;orthogonalLoop=1;jettySize=auto;html=1;exitX=0.5;exitY=1;exitDx=0;exitDy=0;entryX=0.5;entryY=0;entryDx=0;entryDy=0;" edge="1" parent="WIyWlLk6GJQsqaUBKTNV-1" source="2elMFGvCMZI_2MKVowEU-11" target="2elMFGvCMZI_2MKVowEU-12">
          <mxGeometry relative="1" as="geometry" />
        </mxCell>
        <mxCell id="2elMFGvCMZI_2MKVowEU-11" value="Tresholding" style="rounded=1;whiteSpace=wrap;html=1;absoluteArcSize=1;arcSize=14;strokeWidth=2;" vertex="1" parent="WIyWlLk6GJQsqaUBKTNV-1">
          <mxGeometry x="55" y="270" width="100" height="40" as="geometry" />
        </mxCell>
        <mxCell id="2elMFGvCMZI_2MKVowEU-25" style="edgeStyle=orthogonalEdgeStyle;rounded=0;orthogonalLoop=1;jettySize=auto;html=1;exitX=0.5;exitY=1;exitDx=0;exitDy=0;entryX=0.5;entryY=0;entryDx=0;entryDy=0;entryPerimeter=0;" edge="1" parent="WIyWlLk6GJQsqaUBKTNV-1" source="2elMFGvCMZI_2MKVowEU-12" target="2elMFGvCMZI_2MKVowEU-17">
          <mxGeometry relative="1" as="geometry" />
        </mxCell>
        <mxCell id="2elMFGvCMZI_2MKVowEU-12" value="Morfologi" style="rounded=1;whiteSpace=wrap;html=1;absoluteArcSize=1;arcSize=14;strokeWidth=2;" vertex="1" parent="WIyWlLk6GJQsqaUBKTNV-1">
          <mxGeometry x="55" y="330" width="100" height="40" as="geometry" />
        </mxCell>
        <mxCell id="2elMFGvCMZI_2MKVowEU-27" style="edgeStyle=orthogonalEdgeStyle;rounded=0;orthogonalLoop=1;jettySize=auto;html=1;exitX=0.5;exitY=1;exitDx=0;exitDy=0;entryX=0.5;entryY=0;entryDx=0;entryDy=0;" edge="1" parent="WIyWlLk6GJQsqaUBKTNV-1" source="2elMFGvCMZI_2MKVowEU-13" target="2elMFGvCMZI_2MKVowEU-29">
          <mxGeometry relative="1" as="geometry" />
        </mxCell>
        <mxCell id="2elMFGvCMZI_2MKVowEU-13" value="Boundary" style="rounded=1;whiteSpace=wrap;html=1;absoluteArcSize=1;arcSize=14;strokeWidth=2;" vertex="1" parent="WIyWlLk6GJQsqaUBKTNV-1">
          <mxGeometry x="55" y="480" width="100" height="40" as="geometry" />
        </mxCell>
        <mxCell id="2elMFGvCMZI_2MKVowEU-26" style="edgeStyle=orthogonalEdgeStyle;rounded=0;orthogonalLoop=1;jettySize=auto;html=1;exitX=0.5;exitY=1;exitDx=0;exitDy=0;exitPerimeter=0;entryX=0.5;entryY=0;entryDx=0;entryDy=0;" edge="1" parent="WIyWlLk6GJQsqaUBKTNV-1" source="2elMFGvCMZI_2MKVowEU-17" target="2elMFGvCMZI_2MKVowEU-13">
          <mxGeometry relative="1" as="geometry" />
        </mxCell>
        <mxCell id="2elMFGvCMZI_2MKVowEU-31" style="rounded=0;orthogonalLoop=1;jettySize=auto;html=1;exitX=1;exitY=0.5;exitDx=0;exitDy=0;exitPerimeter=0;entryX=1;entryY=0.5;entryDx=0;entryDy=0;" edge="1" parent="WIyWlLk6GJQsqaUBKTNV-1" source="2elMFGvCMZI_2MKVowEU-17" target="2elMFGvCMZI_2MKVowEU-29">
          <mxGeometry relative="1" as="geometry">
            <mxPoint x="180" y="600" as="targetPoint" />
            <Array as="points">
              <mxPoint x="190" y="424" />
              <mxPoint x="190" y="560" />
            </Array>
          </mxGeometry>
        </mxCell>
        <mxCell id="2elMFGvCMZI_2MKVowEU-17" value="Eccentricity" style="strokeWidth=2;html=1;shape=mxgraph.flowchart.decision;whiteSpace=wrap;" vertex="1" parent="WIyWlLk6GJQsqaUBKTNV-1">
          <mxGeometry x="60" y="390" width="90" height="67.5" as="geometry" />
        </mxCell>
        <mxCell id="2elMFGvCMZI_2MKVowEU-30" style="edgeStyle=orthogonalEdgeStyle;rounded=0;orthogonalLoop=1;jettySize=auto;html=1;exitX=0.5;exitY=1;exitDx=0;exitDy=0;entryX=0.5;entryY=0;entryDx=0;entryDy=0;entryPerimeter=0;" edge="1" parent="WIyWlLk6GJQsqaUBKTNV-1" source="2elMFGvCMZI_2MKVowEU-29" target="2elMFGvCMZI_2MKVowEU-4">
          <mxGeometry relative="1" as="geometry" />
        </mxCell>
        <mxCell id="2elMFGvCMZI_2MKVowEU-29" value="Tampilkan&lt;br&gt;Hasil" style="shape=parallelogram;html=1;strokeWidth=2;perimeter=parallelogramPerimeter;whiteSpace=wrap;rounded=1;arcSize=12;size=0.23;" vertex="1" parent="WIyWlLk6GJQsqaUBKTNV-1">
          <mxGeometry x="50" y="540" width="110" height="40" as="geometry" />
        </mxCell>
        <mxCell id="2elMFGvCMZI_2MKVowEU-32" value="Ya" style="text;html=1;align=center;verticalAlign=middle;resizable=0;points=[];autosize=1;" vertex="1" parent="WIyWlLk6GJQsqaUBKTNV-1">
          <mxGeometry x="80" y="460" width="30" height="20" as="geometry" />
        </mxCell>
        <mxCell id="2elMFGvCMZI_2MKVowEU-33" value="Tidak" style="text;html=1;align=center;verticalAlign=middle;resizable=0;points=[];autosize=1;" vertex="1" parent="WIyWlLk6GJQsqaUBKTNV-1">
          <mxGeometry x="170" y="400" width="50" height="20" as="geometry" />
        </mxCell>
        <mxCell id="2elMFGvCMZI_2MKVowEU-34" value="" style="endArrow=none;dashed=1;html=1;strokeWidth=1;rounded=0;strokeColor=#FF0000;" edge="1" parent="WIyWlLk6GJQsqaUBKTNV-1">
          <mxGeometry width="50" height="50" relative="1" as="geometry">
            <mxPoint x="45" y="383.75" as="sourcePoint" />
            <mxPoint x="45" y="383.75" as="targetPoint" />
            <Array as="points">
              <mxPoint x="165" y="383.75" />
              <mxPoint x="165" y="463.75" />
              <mxPoint x="45" y="463.75" />
            </Array>
          </mxGeometry>
        </mxCell>
      </root>
    </mxGraphModel>
  </diagram>
</mxfile>
